<?xml version="1.0" encoding="UTF-8" standalone="no"?><!DOCTYPE svg PUBLIC "-//W3C//DTD SVG 1.1//EN" "http://www.w3.org/Graphics/SVG/1.1/DTD/svg11.dtd"><svg width="100%" height="100%" viewBox="0 0 1010 251" version="1.1" xmlns="http://www.w3.org/2000/svg" xmlns:xlink="http://www.w3.org/1999/xlink" xml:space="preserve" xmlns:serif="http://www.serif.com/" style="fill-rule:evenodd;clip-rule:evenodd;stroke-linejoin:round;stroke-miterlimit:2;"><g><path d="M123.683,135.779l-108.704,-108.779l0,196l56.659,-0l-0,-61.561l52.045,52.116l-0,-77.776Z" style="fill:#ff0082;"/><path d="M123.605,135.779l108.703,-108.779l0,196l-56.658,-0l-0,-61.561l-52.045,52.116l-0,-77.776Z" style="fill:#49216d;"/><path d="M292.278,77.284l0,95.432c26.327,0 47.701,-21.381 47.701,-47.716c0,-26.335 -21.374,-47.716 -47.701,-47.716Z" style="fill:#009dd9;"/></g><g><g><path d="M415,212.754l0,-50.414l19.446,-0c5.377,-0 10.059,1.092 14.044,3.277c3.985,2.184 7.094,5.161 9.327,8.93c2.232,3.769 3.349,8.103 3.349,13c-0,4.897 -1.117,9.231 -3.349,13c-2.233,3.769 -5.342,6.746 -9.327,8.93c-3.985,2.185 -8.667,3.277 -14.044,3.277l-19.446,0Zm2.449,-2.232l16.853,-0c4.945,-0 9.254,-0.985 12.927,-2.953c3.674,-1.969 6.506,-4.682 8.499,-8.139c1.993,-3.457 2.989,-7.418 2.989,-11.883c-0,-4.465 -0.996,-8.426 -2.989,-11.883c-1.993,-3.458 -4.825,-6.17 -8.499,-8.139c-3.673,-1.968 -7.982,-2.953 -12.927,-2.953l-16.853,0l-0,45.95Z" style="fill-rule:nonzero;"/><path d="M477.226,186.035l27.801,-0l-0,2.232l-27.801,0l0,-2.232Zm0.432,24.487l31.618,-0l-0,2.232l-34.066,0l-0,-50.414l33.057,-0l0,2.232l-30.609,0l0,45.95Z" style="fill-rule:nonzero;"/><path d="M537.292,212.754l-22.615,-50.414l2.737,-0l21.823,48.758l-1.369,-0l21.823,-48.758l2.592,-0l-22.614,50.414l-2.377,0Z" style="fill-rule:nonzero;"/><path d="M573.735,186.035l27.8,-0l-0,2.232l-27.8,0l-0,-2.232Zm0.432,24.487l31.617,-0l0,2.232l-34.066,0l0,-50.414l33.058,-0l-0,2.232l-30.609,0l-0,45.95Z" style="fill-rule:nonzero;"/><path d="M620.549,212.754l-0,-50.414l2.448,-0l0,48.182l29.529,-0l0,2.232l-31.977,0Z" style="fill-rule:nonzero;"/><path d="M682.991,213.042c-3.697,0 -7.13,-0.636 -10.299,-1.908c-3.169,-1.272 -5.93,-3.061 -8.282,-5.366c-2.353,-2.304 -4.178,-5.005 -5.474,-8.102c-1.296,-3.097 -1.945,-6.47 -1.945,-10.119c0,-3.649 0.649,-7.022 1.945,-10.119c1.296,-3.097 3.121,-5.798 5.474,-8.102c2.352,-2.305 5.113,-4.094 8.282,-5.366c3.169,-1.272 6.602,-1.908 10.299,-1.908c3.745,-0 7.202,0.636 10.371,1.908c3.169,1.272 5.918,3.061 8.246,5.366c2.329,2.304 4.154,5.005 5.474,8.102c1.32,3.097 1.981,6.47 1.981,10.119c-0,3.649 -0.661,7.022 -1.981,10.119c-1.32,3.097 -3.145,5.798 -5.474,8.102c-2.328,2.305 -5.077,4.094 -8.246,5.366c-3.169,1.272 -6.626,1.908 -10.371,1.908Zm-0,-2.232c3.361,-0 6.482,-0.576 9.363,-1.729c2.881,-1.152 5.389,-2.785 7.526,-4.897c2.137,-2.113 3.793,-4.573 4.969,-7.382c1.177,-2.809 1.765,-5.894 1.765,-9.255c-0,-3.361 -0.588,-6.446 -1.765,-9.255c-1.176,-2.809 -2.832,-5.269 -4.969,-7.382c-2.137,-2.113 -4.645,-3.745 -7.526,-4.897c-2.881,-1.153 -6.002,-1.729 -9.363,-1.729c-3.313,0 -6.41,0.576 -9.291,1.729c-2.881,1.152 -5.389,2.784 -7.526,4.897c-2.137,2.113 -3.793,4.573 -4.969,7.382c-1.177,2.809 -1.765,5.894 -1.765,9.255c0,3.361 0.588,6.446 1.765,9.255c1.176,2.809 2.832,5.269 4.969,7.382c2.137,2.112 4.645,3.745 7.526,4.897c2.881,1.153 5.978,1.729 9.291,1.729Z" style="fill-rule:nonzero;"/><path d="M723.107,212.754l-0,-50.414l17.501,-0c4.177,-0 7.766,0.672 10.767,2.016c3.001,1.345 5.294,3.253 6.878,5.726c1.585,2.473 2.377,5.461 2.377,8.966c-0,3.506 -0.792,6.506 -2.377,9.003c-1.584,2.497 -3.877,4.417 -6.878,5.762c-3.001,1.344 -6.59,2.016 -10.767,2.016l-16.133,0l1.081,-1.152l-0,18.077l-2.449,0Zm2.449,-18.077l-1.081,-1.08l16.277,-0c5.666,-0 9.999,-1.273 13,-3.817c3.001,-2.545 4.501,-6.122 4.501,-10.732c0,-4.609 -1.5,-8.174 -4.501,-10.695c-3.001,-2.52 -7.334,-3.781 -13,-3.781l-16.277,0l1.081,-1.152l-0,31.257Z" style="fill-rule:nonzero;"/><path d="M774.386,212.754l-0,-50.414l2.017,-0l23.767,41.268l-1.081,-0l23.623,-41.268l2.017,-0l0.072,50.414l-2.377,0l-0.072,-46.813l0.792,-0l-22.902,39.827l-1.297,0l-23.047,-39.827l0.865,-0l-0,46.813l-2.377,0Z" style="fill-rule:nonzero;"/><path d="M845.975,186.035l27.8,-0l0,2.232l-27.8,0l0,-2.232Zm0.432,24.487l31.617,-0l0,2.232l-34.066,0l0,-50.414l33.058,-0l0,2.232l-30.609,0l0,45.95Z" style="fill-rule:nonzero;"/><path d="M892.789,212.754l-0,-50.414l2.016,-0l37.019,47.534l-1.224,-0l-0,-47.534l2.449,-0l-0,50.414l-2.017,0l-37.019,-47.534l1.225,0l-0,47.534l-2.449,0Z" style="fill-rule:nonzero;"/><path d="M961.785,212.754l0,-48.182l-18.509,0l-0,-2.232l39.395,-0l0,2.232l-18.509,0l-0,48.182l-2.377,0Z" style="fill-rule:nonzero;"/></g><g><path d="M416.32,148.243l0,-100.83l15.413,0l44.077,73.606l-8.066,0l43.356,-73.606l15.413,0l0.144,100.83l-17.717,0l-0.144,-73.029l3.745,-0l-36.875,61.506l-8.355,-0l-37.451,-61.506l4.322,-0l-0,73.029l-17.862,0Z" style="fill-rule:nonzero;"/><path d="M588.307,149.251c-8.546,0 -16.013,-1.704 -22.399,-5.113c-6.385,-3.409 -11.331,-8.091 -14.836,-14.044c-3.505,-5.954 -5.257,-12.724 -5.257,-20.31c-0,-7.682 1.704,-14.476 5.113,-20.382c3.409,-5.906 8.114,-10.539 14.116,-13.9c6.002,-3.361 12.844,-5.042 20.526,-5.042c7.49,0 14.164,1.633 20.022,4.898c5.858,3.265 10.467,7.874 13.828,13.828c3.361,5.953 5.042,12.964 5.042,21.03c-0,0.768 -0.024,1.632 -0.072,2.593c-0.048,0.96 -0.12,1.872 -0.216,2.736l-64.099,0l-0,-11.955l54.592,-0l-7.058,3.745c0.096,-4.417 -0.816,-8.306 -2.737,-11.667c-1.921,-3.361 -4.537,-6.002 -7.85,-7.923c-3.313,-1.92 -7.13,-2.881 -11.452,-2.881c-4.417,0 -8.282,0.961 -11.595,2.881c-3.313,1.921 -5.906,4.586 -7.778,7.995c-1.873,3.409 -2.809,7.418 -2.809,12.027l-0,2.881c-0,4.609 1.056,8.691 3.169,12.244c2.112,3.553 5.089,6.289 8.93,8.21c3.841,1.921 8.259,2.881 13.252,2.881c4.321,-0 8.211,-0.672 11.668,-2.017c3.457,-1.344 6.53,-3.457 9.218,-6.338l9.651,11.092c-3.457,4.033 -7.802,7.13 -13.036,9.29c-5.233,2.161 -11.211,3.241 -17.933,3.241Z" style="fill-rule:nonzero;"/><rect x="641.747" y="41.364" width="18.005" height="106.879" style="fill-rule:nonzero;"/><path d="M717.945,149.251c-7.874,0 -14.884,-1.704 -21.03,-5.113c-6.146,-3.409 -10.995,-8.091 -14.548,-14.044c-3.553,-5.954 -5.33,-12.724 -5.33,-20.31c0,-7.682 1.777,-14.476 5.33,-20.382c3.553,-5.906 8.402,-10.539 14.548,-13.9c6.146,-3.361 13.156,-5.042 21.03,-5.042c7.971,0 15.053,1.681 21.247,5.042c6.193,3.361 11.043,7.97 14.548,13.828c3.505,5.857 5.257,12.675 5.257,20.454c0,7.586 -1.752,14.356 -5.257,20.31c-3.505,5.953 -8.355,10.635 -14.548,14.044c-6.194,3.409 -13.276,5.113 -21.247,5.113Zm0,-15.412c4.418,-0 8.355,-0.96 11.812,-2.881c3.457,-1.921 6.17,-4.705 8.138,-8.354c1.969,-3.65 2.953,-7.923 2.953,-12.82c0,-4.994 -0.984,-9.291 -2.953,-12.892c-1.968,-3.601 -4.681,-6.362 -8.138,-8.282c-3.457,-1.921 -7.346,-2.881 -11.668,-2.881c-4.417,-0 -8.33,0.96 -11.739,2.881c-3.409,1.92 -6.122,4.681 -8.139,8.282c-2.016,3.601 -3.024,7.898 -3.024,12.892c-0,4.897 1.008,9.17 3.024,12.82c2.017,3.649 4.73,6.433 8.139,8.354c3.409,1.921 7.274,2.881 11.595,2.881Z" style="fill-rule:nonzero;"/><path d="M808.836,149.251c-7.394,0 -14.044,-1.656 -19.95,-4.969c-5.906,-3.313 -10.539,-7.898 -13.9,-13.756c-3.361,-5.858 -5.041,-12.772 -5.041,-20.742c-0,-7.971 1.68,-14.885 5.041,-20.742c3.361,-5.858 7.994,-10.419 13.9,-13.684c5.906,-3.265 12.556,-4.898 19.95,-4.898c6.434,0 12.196,1.417 17.285,4.249c5.09,2.833 9.123,7.131 12.1,12.892c2.977,5.762 4.465,13.156 4.465,22.183c0,8.93 -1.44,16.301 -4.321,22.11c-2.881,5.81 -6.866,10.155 -11.956,13.036c-5.089,2.881 -10.947,4.321 -17.573,4.321Zm2.161,-15.412c4.321,-0 8.186,-0.96 11.595,-2.881c3.409,-1.921 6.146,-4.705 8.211,-8.354c2.064,-3.65 3.096,-7.923 3.096,-12.82c0,-4.994 -1.032,-9.291 -3.096,-12.892c-2.065,-3.601 -4.802,-6.362 -8.211,-8.282c-3.409,-1.921 -7.274,-2.881 -11.595,-2.881c-4.322,-0 -8.187,0.96 -11.596,2.881c-3.409,1.92 -6.146,4.681 -8.21,8.282c-2.065,3.601 -3.097,7.898 -3.097,12.892c-0,4.897 1.032,9.17 3.097,12.82c2.064,3.649 4.801,6.433 8.21,8.354c3.409,1.921 7.274,2.881 11.596,2.881Zm23.335,14.404l-0,-18.149l0.72,-20.454l-1.441,-20.454l0,-47.822l17.862,-0l-0,106.879l-17.141,0Z" style="fill-rule:nonzero;"/><path d="M875.24,148.243l-0,-76.919l18.005,0l-0,76.919l-18.005,0Zm9.074,-89.594c-3.361,-0 -6.121,-1.057 -8.282,-3.169c-2.161,-2.113 -3.241,-4.658 -3.241,-7.634c-0,-3.073 1.08,-5.642 3.241,-7.707c2.161,-2.064 4.921,-3.097 8.282,-3.097c3.361,0 6.122,0.985 8.283,2.953c2.16,1.969 3.241,4.442 3.241,7.418c-0,3.169 -1.057,5.834 -3.169,7.995c-2.113,2.16 -4.898,3.241 -8.355,3.241Z" style="fill-rule:nonzero;"/><path d="M952.158,149.251c-8.066,0 -15.244,-1.704 -21.534,-5.113c-6.29,-3.409 -11.211,-8.091 -14.764,-14.044c-3.553,-5.954 -5.33,-12.724 -5.33,-20.31c0,-7.682 1.777,-14.476 5.33,-20.382c3.553,-5.906 8.474,-10.539 14.764,-13.9c6.29,-3.361 13.468,-5.042 21.534,-5.042c7.491,0 14.092,1.513 19.806,4.538c5.714,3.024 10.059,7.466 13.036,13.323l-13.828,8.067c-2.305,-3.649 -5.114,-6.338 -8.427,-8.067c-3.313,-1.728 -6.89,-2.592 -10.731,-2.592c-4.417,-0 -8.402,0.96 -11.955,2.881c-3.553,1.92 -6.338,4.681 -8.355,8.282c-2.016,3.601 -3.025,7.898 -3.025,12.892c0,4.993 1.009,9.29 3.025,12.892c2.017,3.601 4.802,6.361 8.355,8.282c3.553,1.921 7.538,2.881 11.955,2.881c3.841,-0 7.418,-0.864 10.731,-2.593c3.313,-1.728 6.122,-4.417 8.427,-8.066l13.828,8.066c-2.977,5.762 -7.322,10.203 -13.036,13.324c-5.714,3.121 -12.315,4.681 -19.806,4.681Z" style="fill-rule:nonzero;"/></g></g></svg>